<svg class="heart" width="30"  viewBox="0 0 140 128" fill="#ff9e99" xmlns="http://www.w3.org/2000/svg">
<path d="M60.1859 118.422L60.1852 118.421C42.1504 102.125 27.2202 88.6199 16.7928 75.9074C6.37095 63.2016 0.5 51.3489 0.5 38.3651C0.5 17.0893 17.2139 0.5 38.5 0.5C50.5295 0.5 62.0828 6.08291 69.6211 14.8353L70 15.2752L70.3789 14.8353C77.9171 6.08291 89.4705 0.5 101.5 0.5C122.786 0.5 139.5 17.0893 139.5 38.3651C139.5 51.3489 133.629 63.2016 123.207 75.9074C112.78 88.6199 97.8496 102.125 79.8148 118.421L79.814 118.422L70 127.325L60.1859 118.422Z" />
</svg>
